<mxfile host="65bd71144e">
    <diagram id="ydhfXPjumZ8K32nz81Aq" name="Page-1">
        <mxGraphModel dx="2538" dy="978" grid="1" gridSize="10" guides="1" tooltips="1" connect="1" arrows="1" fold="1" page="1" pageScale="1" pageWidth="850" pageHeight="1100" math="0" shadow="0">
            <root>
                <mxCell id="0"/>
                <mxCell id="1" parent="0"/>
                <mxCell id="78" value="a" style="rounded=0;whiteSpace=wrap;html=1;sketch=1;hachureGap=4;jiggle=2;curveFitting=1;fontFamily=Architects Daughter;fontSource=https%3A%2F%2Ffonts.googleapis.com%2Fcss%3Ffamily%3DArchitects%2BDaughter;fontSize=20;" parent="1" vertex="1">
                    <mxGeometry x="-320" y="1210" width="1170" height="700" as="geometry"/>
                </mxCell>
                <mxCell id="76" value="a" style="rounded=0;whiteSpace=wrap;html=1;sketch=1;hachureGap=4;jiggle=2;curveFitting=1;fontFamily=Architects Daughter;fontSource=https%3A%2F%2Ffonts.googleapis.com%2Fcss%3Ffamily%3DArchitects%2BDaughter;fontSize=20;" parent="1" vertex="1">
                    <mxGeometry x="-320" y="310" width="1030" height="730" as="geometry"/>
                </mxCell>
                <mxCell id="65" value="" style="rounded=0;whiteSpace=wrap;html=1;sketch=1;hachureGap=4;jiggle=2;curveFitting=1;fontFamily=Architects Daughter;fontSource=https%3A%2F%2Ffonts.googleapis.com%2Fcss%3Ffamily%3DArchitects%2BDaughter;fontSize=20;" parent="1" vertex="1">
                    <mxGeometry x="65.4" y="1541.4" width="539.6" height="319.2" as="geometry"/>
                </mxCell>
                <mxCell id="2" value="CLI" style="rounded=0;whiteSpace=wrap;html=1;sketch=1;hachureGap=4;jiggle=2;curveFitting=1;fontFamily=Architects Daughter;fontSource=https%3A%2F%2Ffonts.googleapis.com%2Fcss%3Ffamily%3DArchitects%2BDaughter;fontSize=20;fillColor=#1ba1e2;fontColor=#ffffff;strokeColor=#006EAF;" parent="1" vertex="1">
                    <mxGeometry x="220" y="450" width="300" height="40" as="geometry"/>
                </mxCell>
                <mxCell id="3" value="you" style="shape=umlActor;verticalLabelPosition=bottom;verticalAlign=top;html=1;outlineConnect=0;sketch=1;hachureGap=4;jiggle=2;curveFitting=1;fontFamily=Architects Daughter;fontSource=https%3A%2F%2Ffonts.googleapis.com%2Fcss%3Ffamily%3DArchitects%2BDaughter;fontSize=20;" parent="1" vertex="1">
                    <mxGeometry x="340" y="210" width="30" height="60" as="geometry"/>
                </mxCell>
                <mxCell id="4" value="interacts with" style="text;html=1;strokeColor=none;fillColor=none;align=center;verticalAlign=middle;whiteSpace=wrap;rounded=0;sketch=1;hachureGap=4;jiggle=2;curveFitting=1;fontFamily=Architects Daughter;fontSource=https%3A%2F%2Ffonts.googleapis.com%2Fcss%3Ffamily%3DArchitects%2BDaughter;fontSize=20;" parent="1" vertex="1">
                    <mxGeometry x="305" y="340" width="120" height="60" as="geometry"/>
                </mxCell>
                <mxCell id="16" value="" style="shape=stencil(lVjbUhsxDP2afdXYlq/PlP4HM4SSKSVMgF7+vvKkTlbychreNl6drKRzLMle+Ob18e5ltwT3+nY8fN/92t+/PS78ZQlh//y4O+7f5Gnh24VvHg7H3bfj4f35/vT75a5b9qcfh5/9H36fcN6RKx0V3J/TiqN8Wvh6sn/aP2t7rsreU6nQvjZlz2Nh296T1/+fyGN7Dso+U2Vsz8q+UsP2ycQrKxkAArFOqI9UEIApRw2oY2UbkCjpkCWn3gFAsRxI0B6Q3DWgg2ZhDbgUIoWsAFF0BdIqDpi0xkwJ8Nwd0LwlJkaANnR8FoajAGIQB7wBZCrgC+KATwpQAtSSOMCa6SJpAMTlQtFrsUrQAFAiOS2NWigApksbvA5Ac+Obm4AaqTkNCFDetVHQLrVIMX0M6P+neWgJlqQmIeos9RW045yI0wTRYJWR17VYQARUtzlq0SOKWnbkBECFrGW7RwXQ0BcSOS3XVR62EWzl1z+BmPDU5iAAEyK2Eqc0ISK2mIug/4j8rJoaLANtaogCgFmaOpxwieqGCNxSLQUfUT11CAEkBEgUJpcS2NUiJrurBYCYrqMOrYNGWWq29gmgAuK61CYteRTDWZsrAKMNIcppFpCQS+esrwBo+JE65Kcv/IvqI+LyJO+GtMRjz18LCKNrrgEorZ7cBCgorW4j6AQAfYtOAAZZ+jygTlWjQLVWqZWmuOaRhm1AoGB4iFRBWqXz26bFo/BsA+S1HrHaeUr7aHgwPMgsgIqAjCdG3jJtIECa+oNEhap3H7F0WgueXGWI8zpomcnQiMWBsnapD11o1JUZTwMSDlrOO1FrSaJCQfs8NuRqNvZArZ5tbZXhF1WNfibTWZLxGvW4MqrW+gABkjRVJY+LvbhrTjSyGUAAYYz+qzNWBhx4ay9nOLAT3Cg/qyMiiNaNNnM5gQbg/DSR4AOuG+q67vzsRuKuO547atmYIzH70SAv5owGZ6tkBzMTZt9RA+dRMC/mDp3X7NiFh9lsacLmxTYA7Eydb1FQqNWOWziR0j/jcj1NbZTIK0Xw+Sug/9jLw+W+6WH/9HS6rlq/t/dTsnS62+Lbvw==);lineShape=1;sketch=1;hachureGap=4;jiggle=2;curveFitting=1;fontFamily=Architects Daughter;fontSource=https%3A%2F%2Ffonts.googleapis.com%2Fcss%3Ffamily%3DArchitects%2BDaughter;fontSize=20;" parent="1" vertex="1">
                    <mxGeometry x="268.88453462112034" y="289.93477813989045" width="16.989535806736576" height="116.64456006116595" as="geometry"/>
                </mxCell>
                <mxCell id="17" value="" style="shape=stencil(lVjLUhwxDPyavapsy88zSf6DKiBshQAF5PX36cmWh5GWaUIVh2W35bGkVrs9B714vr18vD6k8Pzy9PDt+tfx6uX2oJ8OKR3vb6+fji/4dNDPB724eXi6/vr08OP+6vT/4+WCXD59f/i5rPD7FKeCiOUv/Dl9Eavk+u+bLyf83fF+g8/SLD5FiW0fX0WzxWcZfR/f59NX/JBO8DGKFhOgRYaSgCLBBuQkI5GAIWWYgBIkl/2ApUY259IlkppqEI0moBZpJGmtEm0OTSWSHJBiCDZgSAskoEm1SfcyN/lmQEERXQBvXGlzAzNgqChjUpSuNqBIIU9AEVOzAZUHoCbVPyGN/YCWpBefdCPka1myqxLGgZS1VQk2h9alkhxak2K51DAhpNNYr9stVZVAttTDXG+ld6YS0KOfh1wkky119aIBwg8yQOBmsDlANWImAXWK0BqQJJLGdVTJUgM6GQk1RphtWgOiZDKiI4naJ6wj+DY+S7D4LIUUdeG+xQdpRMVG85KBvpMKAX+2fiCsGH2SZoNn++9TEl/xTPLG8KIK1Wb7H/5kC3Mw9vDDzn6kp8KCdxydB9Ee3sldkkooDbyTFqUjALzrr07l2Kt/jg7fGL5J9+u/g09+/cL6W+dym3yJRgDv5gv1ZPxc53vTLyK8wHsnJZnjsxW5QG0I8N3jKd+azzdwPjQZH5zH4ucxsPoP71kCNRTAV68/jc+7O8eiJFKfGIIfgDhP890BtoRL7w18dVaZOt8P45svKBjIGly8II55ar6N18nftT6JMzpKtQ+IjTsJSK4bsURb0JvXXOTADjGc88ndDhrNoZ/db+BVOrMe6scMbqgSnnbIiJ1j+K1M+gC/5YQUjq4T5YK19xZwTK3Zs4DRJg1DxagHV1qcs+bmZvG9NmmwkZ0GSNG5CehNJcd3PaPGZsDfjshesJcJJGSqqwHa7CmSgFL8kb/cWEirC+7Swdd1kFaDnNWWCSOS2M3xzFXAnRfCDVVvfNFLNhCwrcM+Aa2h1+UkyU0QH2o4b1dW1I1dD6BbTvlypl62zw1vVINVFcrqrBfOHkI9nU5ilTHoFHtnMVv0n7eV4C+NEOJMpu38JIRw8/Vti9ES5k2DP6mAT4TWwb/TiZgkun5Vj6+EEMHf/oBnL72i13jglTF08neLJ/VM05lt90P4k7zAA1/YTEpPHt85P88vu4Q/H32J+D4eH17fWN4c7+5OLzy3v/s3nPjq9HZUP/8F);lineShape=1;sketch=1;hachureGap=4;jiggle=2;curveFitting=1;fontFamily=Architects Daughter;fontSource=https%3A%2F%2Ffonts.googleapis.com%2Fcss%3Ffamily%3DArchitects%2BDaughter;fontSize=20;" parent="1" vertex="1">
                    <mxGeometry x="258.63912707418945" y="371.50395928897785" width="42.15093090053674" height="43.135551654790255" as="geometry"/>
                </mxCell>
                <mxCell id="18" value="" style="shape=stencil(lVjJbhsxDP0aXwlJ1HpO0/8IEKcxmsaB425/Xw6mGg+pmRfk5kweJS6Pmw589/788HY8BPd+vZy/H3+fHq/PB/5yCOH0+ny8nK7y68D3B757Ol+O3y7nn6+P899vDxNy+vXj/Gs64c8s5yjnSSi4v/OH1sjPX77O+JfT6wrP5KPGV0p1H1/IBY0vVADeB8pGIFP1QCBTyVbA875ACBScFkgUkEClXLQAU0vAR6JA0wJyJ7AhRspapdqoAZUSU9Y3VHF02xfIgZr2UmUqEcQt2MCVRhUErrrOm0Ugdb9tC4jGRsB3cm0KiBPZK4GcKYIbJK6G3NlTcUBAuKRvSEI+4Fa54T/5F4HwkQ1BuzUWYuTW3DVeBJYM2Q5co8hKgAsMXHFUdUozUwAlQJyYtEqSIQV4KXlq+oYQKQF6TyYaAQerjGjctFulLDQQ6ZAp6MB5pgS45Ju1wbtOlm2B2BVYMq5fuY131HSVERVRglLTBohLQU2SVNBw7lVwp8wXYy01EGFv08DB+Ao8GDjD000aO8jPRdUbHKVkoGhPd7ABumjhgAY86u6A32O3bAUHukcqxZoKakOyzdvBxpeI2cAZeEbgNqoRVYWu6g2O6lq0jJT0QyXE1lmpcpDveYADv3MP4gqOJghbkh2egWyvdr3b76VHssmHKtmYfBGYKnCbTQwc6ala3T0wVdqhPd1BeB2SD3CGN1IbJp+z2YROl6HNWzjku7Mk8BA+eIZBnfkkPNvu4fsUvT2F9Fxb+nGn6DYJfK+Jt+YEScO296X+YRtfLMsKbE8Tb/T50m0jGg+aneBFxYBH/qotlgEEZWGUyXEYcdANKVqbbzVuO8SxD8erMS0BowvbGzhAt9ZgS4mMmhnYIFuNiYNMehEIyHwddW2TcTmgkb9S1QLTQI6o55yt5TLzo91Lrmg6GWQgRhvqtCRonWRvQW5qCxNWmxGjVYp7eq12L5Sg8m+v6VrxKCAaGy/VCKeqNOwtsu+hAVUCaxqNuAFxgyVHtZdkuUJx4KFRNinhqG2n4aUg9yK+LeBsjW8Fzm8+2b1leh5Blc/1bXH1/pLRsmZTtLU+pu20TJOhgq9wHI7R4lH2BLtGTXjY8aMOwSph9waQNFwApycz5E54YLDbcBDaNIXEdXAoYKkbONfgnjlSrvVE2sMP50cQANfL55pA0D88EA71tc8+QH6Mlx+3186n08vL/Fi6/r99HZVP88sq3/8D);lineShape=1;sketch=1;hachureGap=4;jiggle=2;curveFitting=1;fontFamily=Architects Daughter;fontSource=https%3A%2F%2Ffonts.googleapis.com%2Fcss%3Ffamily%3DArchitects%2BDaughter;fontSize=20;" parent="1" vertex="1">
                    <mxGeometry x="427.07574564221727" y="251.44249711707585" width="36.62167341882022" height="167.71985749568168" as="geometry"/>
                </mxCell>
                <mxCell id="19" value="" style="shape=stencil(lVjLUhwxDPyavar8km2dCfkPqljCVghLAXn9feRs2Yw1M73FbRnUY8tqt1pziDdvj3cvx0Nwb++v5+/H36f798dD/HII4fT8eHw9veuvQ7w9xJuH8+vx2+v55/P95e+XuxbZfv04/2pv+HPBOXK5gYL7e3kghVL5/+TrJf7p9LyI9xTDHB/IexQvZYqvlZj34wNlE5+o5P34SEnmeEcZ7CdRSlN8yeTTfjwTz/kWPQFwPpkyT/E5Uwr78cWeT/bkwfuFkp/imamC93tPbk6YHcUIAIHqzIiUKKMVEtW5BLFSQYBMYgC6JqiBF/JzEfTYHCKRpzCfqj5hsILSKM5l000mQCPlRXQzwFMBx/qx40EkyoDXoVKeF0h9xe174CjUeUOdidvxoS/f41UJ0PuVZtHEe3QvheLMu0ABvD9Fu38mARVLpf975Os6cbcvspZ4TlhLzAIAQjzvSFMQANCbblknlAGgRHLzmcbc5XgbIF17Bik8vGqVu7gNQIbyLo5kvmoqFxnwWob8DIBKcgUA6fo2AIkEMEMBPJ+SSp4H1FZAdRbAKAchmanBWgfU1Ny4LAvEtSWMbpcuzHuALBZw5VzjCoA6gwKc2VKFEiC1d9YlAK1QKcTVllAOpTNhAWAMMCqmACRLCmDTDjPU4U0AMgxtS0bImDIG2CvH/dx2j9UknaBWtsKxBVTA70aNNQBfubTKAXVoBZQVIAKtbBdoBYCmYfOORlRqXYItANJVkzClLt1H7ErZit9Iv5tYJgsQlINaLwOoWGeqdT5crpHpk4CVP9RjDahpSSfnoqUE0LRqtLKRBLKvVGuK1eMGUGk1/Xlmn3pcZIpzstRQwxWQPalWjQOWDdbObxzosFzbjkl1a66Dj71RbgO8lT6BKcQh7mOWgZYvxu6Yxxn1JrlncY3l0/uMPLpYPyZwdFNHnpw9IJSwVsgCcMtdjxnNUqIUdJAxAL1+gKh+5a5igmZJd2wdIh4EPPfLOwAMe4MeovVvHnolnUCdcYg6MaKkHRUzRAc4LIk1Mrn0MX9bYIjnhlsCMShbWcUXSKRs1aV6ODhw/yQy4vFHALUHcwVUYjO6+eRmpZAISRTsQK9NgtFN64QZ8QL9dugjyCIemYVgZ8/WqUG+wWpvswLoDlg/tTAbOwAz3LYFAKOdLVibaUABnCW0CPwK5qwOaTzqf66Xf1Fg5IycHWw1Hn0FW1m1Zophvp/7ank9Xn98fCJ9OD09Xb6wLv9vP6nqo8vn2Hj7Dw==);lineShape=1;sketch=1;hachureGap=4;jiggle=2;curveFitting=1;fontFamily=Architects Daughter;fontSource=https%3A%2F%2Ffonts.googleapis.com%2Fcss%3Ffamily%3DArchitects%2BDaughter;fontSize=20;" parent="1" vertex="1">
                    <mxGeometry x="417.09781581193806" y="244.7018329837316" width="52.98426327810093" height="40.626609740358965" as="geometry"/>
                </mxCell>
                <mxCell id="23" value="prompt&lt;br&gt;" style="text;strokeColor=none;align=center;fillColor=none;html=1;verticalAlign=middle;whiteSpace=wrap;rounded=0;sketch=1;hachureGap=4;jiggle=2;curveFitting=1;fontFamily=Architects Daughter;fontSource=https%3A%2F%2Ffonts.googleapis.com%2Fcss%3Ffamily%3DArchitects%2BDaughter;fontSize=20;" parent="1" vertex="1">
                    <mxGeometry x="480" y="320" width="60" height="30" as="geometry"/>
                </mxCell>
                <mxCell id="26" value="action" style="text;strokeColor=none;align=center;fillColor=none;html=1;verticalAlign=middle;whiteSpace=wrap;rounded=0;sketch=1;hachureGap=4;jiggle=2;curveFitting=1;fontFamily=Architects Daughter;fontSource=https%3A%2F%2Ffonts.googleapis.com%2Fcss%3Ffamily%3DArchitects%2BDaughter;fontSize=20;" parent="1" vertex="1">
                    <mxGeometry x="170" y="320" width="60" height="30" as="geometry"/>
                </mxCell>
                <mxCell id="29" value="" style="shape=stencil(lVfLchoxEPyavU5JGj3PjvMfrjIOVAi4MM7j79MEL6xG0CnflmVammn1tGYnfXhbP72upuDejof999WvzfNxPemXKYTNbr06bI54mvRx0oeX/WH17bB/3z2ff78+nSJPTz/2P08r/D7jVCWXEyq4P+c3XnL+9+LrOX672S3jq9TUxTdx/n58VCnarx9FKwEUKbEDBCeRABIS9j2gSFQCSJL7HTSJb/cB2Ul2HQBVKSEpY72eVCT5UdVtQJPUOgD2ZLQWFR96QJFWCKCI72soSUK4D6hetAdUXkPNM+sXQBVHDq4FW3SDWEgNrUntaW0omtQAQDGAKonQel3vAoC8WUpxXm8BSER8FTU0C/joqNsA7JD7BnLQhiNHfUl5sUUjci1xXm8BKKSIPB5EE2X6LlauOIjKdsji1AICoQkA4zM4S2ZkqMEPAE9SKkGaOTnsyXoUYnIWEFkHwVWSBTCfQYOVPOxAAGiwVIcaCK3gJLSBJeKVJ/l7C2BaWqh5cdTKmhRVj2JiOSUpQ88pA/i5h5cNwQ4iz3fasuWIb1QndQSQlODWeTCaSryvePEDgN2j6NGaLYDdQWi5MBwc0/fnAV6aYSnOVd2+2rMFoEWU6Pt6Ly9uOeaVGE9iTytOJvIBKPS05kp9RtFBfUqYBQLxe41SewCqaoRWjGxtmGcSEV/AyNb7PSYm1kC+Se5bNHA3xlBo7BtTHzMmD9fovRJLZCbvOeHr3KqE1MGUuCyceJMNnQK8BDt0M1mrNWHHr2c76jmq0EFvKIYQ6dUyCa6I2jw6Jtl4wjy4iNXGEysNmGPVxAemfoyAlp7E2svPU+w1vpL1Ndh29HOCt+M/+wX233g8XD/3Xjbb7flrcfm//TzEq/OnpT7+BQ==);lineShape=1;sketch=1;hachureGap=4;jiggle=2;curveFitting=1;fontFamily=Architects Daughter;fontSource=https%3A%2F%2Ffonts.googleapis.com%2Fcss%3Ffamily%3DArchitects%2BDaughter;fontSize=20;" parent="1" vertex="1">
                    <mxGeometry x="263.32346693878026" y="506.89252493426056" width="4.866934259033379" height="45.36635148559045" as="geometry"/>
                </mxCell>
                <mxCell id="30" value="" style="shape=stencil(lVjZctswDPwav2J4gsRz2v5HZuI0nqZxxkmvvy9Ul4oByavkzccuSVzLlXb55uXh9nm/S+Hl9XT8tv91uHt92OVPu5QOTw/70+FVP+3y512+uT+e9l9Pxx9Pd+fvz7cTcvr0/fhzWuH3mdcot4mUwp/zDylQrf9++XLGPx6eLvCdWrd4phqu42OgFA0hR6oJECI1e6KsOzRAyMR2h5IoFECo1IMldAoREDolG3QtVAAhRQp2Bw4kDAiZug2aGzGIQbPu6tDyiGqdIGO9mSBU83VCTlSyIXQNugNCoyiGIHMaVgklELsdtPag94qGyDaGQg3EUBqJDZp5lHKVUPPonLnSTB3sUDt1SyhMItcJXCm69m6UQGs0zYntJZ3BCGJojbob0UAR7KB15WoIMcEjaV2jyxKcUKmULD6MrK3j2Y+Pighan33EATaeNGri8Sje7mcnjNlYxwtl29g6CKAnFO8EKZIgxQvBJyhBgm4gFp9JQAsp/r9Ez11NAvROE9RtQutoqWv4YAvGFMGdoAWLHp9QQtkL9sb6lUrz50cNWhZTPxJ8DV/4I/kvlC0+wetD8dXicQNpvOFDDVqHzL5zAPTGXgwk6odGZTGQKJ/du5YNgZBR/gsBQufRy7K7/DDKv4x0v9WLsUA4fMbzouex+DI8zzvjrVuCtcSjeSnecqmCgfN0rZe7YRhfSdEL1jQxIILGvqPVZgpIKYu3BmpH0MxwGSeecxRgU1QZl8qFCawgS2oqnQlsAfrSGoeDmwmzPV/3Q93XrWMhLXXozlzoNPz8NYsWnAlkKF1Zs2SDvrjd1hkqjm4LgVGrXyq2uyVjc1295eoyLqx1QvL3Qc/QmEbxeZ1cG2hXnRexlVNfWBAh+wli7JVj8JpU8VORzrTTDD0RyOrC1GlzReT2x7/zRKutQlXzmp3xJRsXT74dulg10bYCumMF6y89WtzA+/XDBt51tTYVunTCENAZ3+ETY/RaofgI1tfnRWdiG9TH7D2a4tFDdfEecANfvfxO5wH9Vv3D5RQvWJ+9+EYsvm1YoMt6gfU/+mZmG68f3l4D3R8eH89vkS7/96+N9KfzK6f8+S8=);lineShape=1;sketch=1;hachureGap=4;jiggle=2;curveFitting=1;fontFamily=Architects Daughter;fontSource=https%3A%2F%2Ffonts.googleapis.com%2Fcss%3Ffamily%3DArchitects%2BDaughter;fontSize=20;" parent="1" vertex="1">
                    <mxGeometry x="260.7064753092129" y="536.6360434039618" width="30.751916901863815" height="27.527037258052196" as="geometry"/>
                </mxCell>
                <mxCell id="31" value="" style="shape=stencil(lVfLbhsxDPwaXwmJFPU4p+l/BIhTG3XjwHH6+Ptya2i94tpT5LZec7TUaEiONvLwvnt62244vJ9Px+/bX/vn824jXzbM+9fd9rQ/29NGHjfy8HI8bb+djh+vz5ffb09T5PT04/hzWuH3BaeJWCcUhz+XN61S4n9vvl4Ah/3rEhCpOIBSrPcBqVItI4ApCwAoyfiF2kgTADBxGgFKBX0hUHSACPcg1W+6KNUGALoCBAoRACLVOgCyUNb7AK6kPAC0UAgAYLTGEWApgT0wUxhTSkIRpBTtpMcvSCYuAKCUxi9wg9KITDGMACEBe7Dl2hAfCxUgpUIiYzx39d5Wkqeo9gRvhod+QvPy/RDvhDeXPQVUBxTGQguUgeQqteDC4WEln43tJgP5RM99wPqsJD4fxKUkX8SBBLBjNaw+nwLoSXNLuLKP1G/xObn4jPJp1EatMd6v1RK7eEUdxdQTXXwF8SYfTS6+IT1YJTUfD3pojCTZ5wNqXdf0oCHAXYwLNkG4aWsMt8MCyYc+E6/hjLTcd7aQGuw60YcLYt6Wzy4+gpONjZJfH1Zi9uRYPFC+MAm7eEbKL8S+EhU12eCVGWH+VonFdXFKaP3Px7vOUKDybWwWJzbutXPPAalrPYUy6LXmsdjVunSO77k41/xtVCqqRqU8DhfrRxGQpLbe6ICMBqSiye+Me0gN0ppL70+zoclwWBfunm3hsRJgqdiIHIWXG1Wg7Jp6xgufiJxoC72HzwZiHvq3Aep7hXldBcXQVmPV3LSgbhFWLsUMO6KpzaQsrgTIWRogjwUxZQl4NYCb9QaAvK6M3LQEoin1BBaAhE9u/YUMNj2dk3oAukPU2Y8tAEgbJVF19jLgTm9yTqucGnCkeWUSDIBGWw7+MjfxijqTDUP2ANhotLeVhTaQ0fn8lff/AHu43rBf9ofD5YK+/N/fyO3V5TYvj38B);lineShape=1;sketch=1;hachureGap=4;jiggle=2;curveFitting=1;fontFamily=Architects Daughter;fontSource=https%3A%2F%2Ffonts.googleapis.com%2Fcss%3Ffamily%3DArchitects%2BDaughter;fontSize=20;" parent="1" vertex="1">
                    <mxGeometry x="443.8856550665412" y="501.9394389341601" width="4.046844518453976" height="56.40406612695305" as="geometry"/>
                </mxCell>
                <mxCell id="32" value="" style="shape=stencil(lVjbUhsxDP2avGpsy7KtZ0r/gxlCyZQSBujt76ttxmGt3T0Jb8Ho2Loc3XbHN2+Pdy/7XQpv76/H7/vfh/v3xx1/2aV0eH7cvx7e7deOb3d883B83X97Pf58vj/9/XI3SU6/fhx/TTf8OeECpTaBUvh7OkiNqvw/+XqSfzo8z+QjqZNnUt2WF5IwyMdC0sD9gaSMAFMRPBCZKg+ASoLkK8U4yAtNf23Jm4fKeD9TYiCfKTqLqZRteQ6UR30ChQDkhWp28gwClkNX90P/BvyTE/F4f6OWgbxdl0Z7mQQ4NAsVB2jdBeuARjJqZD5W4FIJ3oTJBvCCmM06+iiRgiBIpjoGmY1WgNZSO8k6IEcSELZiLHCAQgHErTDF0WhzQ0MvFCqjDSLU6jagGlPH3C+x59I6IHcFzoBCFXipKuU65nLqJ6uAlr3RtVEAKjUlHrNhugK8oJnKaLTifFP1+aZCEbDVAEU9AGWcAXR0qxZYYiaAe6FC8hmgjdRQnKIGyA6gPTLrgHNRmQEKoIYBYvMARYGrnkuXAKXXiGtVKpRkYTRyq/h8uORW6XG9NnDi69IlakivpNeSr1BOHgDpXX0h03Px3ALU6AGCvNR8B52SFr2gFMQDFEVa/VBiRqMhY0og9XFgOPacu/4s1OlCjronLEXAYLJiRCMFjXrFTXYFemEZCIVtdBnqmR+uZZPC1r7CV8X1+9OA2LvmjE0Z2NCMCuMLreEuZ43cNa1EBahUxXeIWolRp46efTXCWcAauZtn7CSDMmCjgo422AlSSdpinsEpJItOLbFPmuuA6BMin9m1NYjW0a02LAsw2kY2ZwM32CFsmK6jDcxwiLMp0lUB2ycCAJgCMgJSgvsAFz/12QbX0EKTPVtjhG7l6IeH1leK9Q2r9Hw8Jxzk6rQguZUyUQWAuLSg9JOtpdXtoLb0ZZSgVMa6ZycJbTS+xJjP8NbtYmb7TEVLn68XRjukf+6pO5NX4CD2q4aRJIESmTrD5vJAn9Q730w+oAj3WjXTH416VoAXaRmB/rYpsfc/6iFhoX/s30025F25tqwXYG/wndxSpoAp77NfhS7L24+PT1APh6en0xes+f/9Jys7On3u4tt/);lineShape=1;sketch=1;hachureGap=4;jiggle=2;curveFitting=1;fontFamily=Architects Daughter;fontSource=https%3A%2F%2Ffonts.googleapis.com%2Fcss%3Ffamily%3DArchitects%2BDaughter;fontSize=20;" parent="1" vertex="1">
                    <mxGeometry x="434.32819414927985" y="501.9902739045681" width="40.47716220086347" height="32.019516556321705" as="geometry"/>
                </mxCell>
                <mxCell id="39" value="CRUD" style="text;strokeColor=none;align=center;fillColor=none;html=1;verticalAlign=middle;whiteSpace=wrap;rounded=0;sketch=1;hachureGap=4;jiggle=2;curveFitting=1;fontFamily=Architects Daughter;fontSource=https%3A%2F%2Ffonts.googleapis.com%2Fcss%3Ffamily%3DArchitects%2BDaughter;fontSize=20;" parent="1" vertex="1">
                    <mxGeometry x="340" y="520" width="60" height="30" as="geometry"/>
                </mxCell>
                <mxCell id="46" value="REPO" style="rounded=0;whiteSpace=wrap;html=1;sketch=1;hachureGap=4;jiggle=2;curveFitting=1;fontFamily=Architects Daughter;fontSource=https%3A%2F%2Ffonts.googleapis.com%2Fcss%3Ffamily%3DArchitects%2BDaughter;fontSize=20;" parent="1" vertex="1">
                    <mxGeometry x="185.2" y="1621.6599999999999" width="300" height="40" as="geometry"/>
                </mxCell>
                <mxCell id="49" value="" style="shape=stencil(rVjbbtswDP2avBISdeVz1/1HgaZLsCwp0uz296NnyLUo5xQD9uYoOhbJc3iRd+Hh7fD0ut+xe7tdL1/3P4/Pt8MufNoxH8+H/fV406ddeNyFh5fLdf/levl+fp5/vz5NO6enb5cf0xt+zbgYKfgJxe73vOJJwt+Fz/P+0/G83p+opG5/Isn39yemmPv3e6oJABLl2gMSpQgAlYL0AKFS7gOyo+I6AGsQKgAwFe4B0qK2DYhU+xOCnoBMyuT6qAah7DAgdgAlUpAPGlbDm2txuwcIvdPKTAHKmEwqHUADLYC4XCj10stYS0Ut7n3QlQxMKoFqL76SyAHiSqEaekCFPlQm15+gKwHIu+YmtQWQiPk+QKJlukozchtQKfcmSSAG4vPOkevlKoUi0IYekXqqdYURYJH/AhBIRFUi2AIScKJovgwAQVQ7C1jFYVuvnkq1RyAmUhziKhQB17GS9zauFZikSW8qkwIckJ8CeKCagcBjpmSczq2ibzvtW0ouAK0bQBtav6u3gIB4KDaFFOCAD0UtjgMAEFeXv1cAqG8mzoPToBxr1G1CLEZuA2RIiILrhgwnVOi0DD1IAdAH1wxYyxsQp6UxjgkEfND6bZrWhzkaKUd7BCoDScPuLSABr+NIhJYylNTL+LKKK5oe4lDxZemU/w1geru2CFTwY7Aj00Q+qjPDjKU5lYFJQauAaXPc+tg2ILfGvLRqIQ+I0xFMzPSQWjHcBjDVPoO0Z6CECL4JYRloMixMOkYap7XHIHnz0NunoQydUNpUuBr7IuCBs21yEddKnZ3FzLqCTfJWGsoMyjivYu6J07ihG4EPFPooqZFoTtTXmQuBg100k+/bg15R0J0m2LrnGUrVU+pvNBXOxa5l1qIiaP0w7TGsX46SmZNg8Ln17vftDnX/Nn207eoMarTks9mO7lWqBDPPO/JIORpoMfvRmDpdHO37Yf6K7QVqDypBG+8PgCutoqabLVPudpn21h4P/dU+YFLRU8Tj5r99Xfhwvz68f8p4OZ5O85eQ9f/204cuzZ9NwuMf);lineShape=1;sketch=1;hachureGap=4;jiggle=2;curveFitting=1;fontFamily=Architects Daughter;fontSource=https%3A%2F%2Ffonts.googleapis.com%2Fcss%3Ffamily%3DArchitects%2BDaughter;fontSize=20;" parent="1" vertex="1">
                    <mxGeometry x="211.63868103029972" y="1679.6520582036474" width="3.8164375416081815" height="42.70121625209175" as="geometry"/>
                </mxCell>
                <mxCell id="50" value="" style="shape=stencil(lVjZctswDPwav2J4E3hO0//ITJzGU9fOOEmPvy9Ul7QIyevxm6PsQsSxAKhNfHh/fXrbboJ7/zgdv29/7Z4/XjfxyyaE3eF1e9p96K9NfNzEh5fjafvtdPw8PJ//fnuakNOvH8efk4XfZ14gDhMpuD/nB8lTcv+efD3j97vDDJ9JyoiPlPx1vJDLIz5TBvZ9oMwjgcklQChURkL25MGJgjpoCIlqBYTaDtAJTAzeECMFPxCKPgFOR6E6vqHUlpdVQioUR0LVuEWQtkWea6XAgNBdbAT2xPk6oSTyY1i5kEcEbvY6QYjlOkFdrOMbJJCA0qi52euE3MpxncAkbiT0VK4ThIStD65cJ2gQs3E6UAFvYD2ASVyiCDLN6uLotGamgPLm2uQy0wP0QWymtQcEcCRRQY5hjaEFep2g1Tp2mRCpgEyLKnh8g0+UEKFYpwsxkIPijUI1kSBGipfRviMBtS21RfCCR21S8f9zesF7dB62OXPkkH2mas/vUIrFtjxHAZ1HWtVf8AUoU8RKWWsKFLV33b8LoeIDyZjgQBHjazB4QXNQmrmuAWyfrcM3FMBL+xXhdcCke+xXivWe81cbf40PmGiTwNjGHyR4wo/x93CIK56tgFEByaIr3ijQSvkuAehWc5fAmHKyeCTgxeJ1o0EIJTF42IDE7geujcKr+mITf9hAF/iA87WGx/bNmNQE4gZtJ0xuk3mdkO0ECDq40RuSbaHxhiSDlWRKuCYcpVEzOunRTsfcctSnJN7edeUzC5TuYGiB4m6v70OxBXqdoFEa61q9ggtUsPeDKTMgrKxCGZU29W60ZmprGWf3bPqsM+Jiz+zyXic42720n6F2ofcHN9aG9O15nRAojU5Mmyyo71ztUqepYXRz1IY7Vp9GOoI3aDWXMdVaTGiTjdxO3Am+hWGd4K0gSoFdQK+/pjY0bhGE1UvT/OzuiPqe7q3R3E7zjU2Hgrmd4k5ZWpZ615B2J1kPUluMO153VRAjZxcXvfGjUnV2sGneKxB0n6szfAR1p1Jc3FYYnscsLopHF64+tzs+wLt7n8MzPLafzHk8vDw5uxgpHn0aWFzOFB9QwTVrM7wH/no7mBXvkMasJif7EH/fF6zbeP1x+Vz2stvvz1/b5v+3n9f00fnTXHz8Cw==);lineShape=1;sketch=1;hachureGap=4;jiggle=2;curveFitting=1;fontFamily=Architects Daughter;fontSource=https%3A%2F%2Ffonts.googleapis.com%2Fcss%3Ffamily%3DArchitects%2BDaughter;fontSize=20;" parent="1" vertex="1">
                    <mxGeometry x="193.16642202392472" y="1699.5676450269234" width="40.226172279001815" height="35.2021390928212" as="geometry"/>
                </mxCell>
                <mxCell id="51" value="" style="shape=stencil(lVjRbtswDPwavxISJUric9f9R4GmS7AsKdJ0W/++9Iw4ER3f0Dcn5lkUeXeiPaSHt+3T62bg8HY+HX9u/uyez9shfRuYd4ft5rQ729WQHof08HI8bX6cju+H5+n369MYOV79Ov4en/B3wrFQ4RHF4WP6RyvV8O+f7xNgvzvcApQ49wAhTeuAZLdjD2DSsg7ImWrpAE1J2jpAAqXaAyrlCgBCza0gFOI6oDCl0AMiqQJA85uujRLYdM3UtAdkCmAFe16VDlAUAlogdoBEieEKuaeGFFIESD4l60wA1CiVUg/IfOnM/cY13zhjVxHAJetD6wBsdUNsbSR9p3nu/X09NCq9HmKhAlaISuoAEW76enumBqSS9Tn1zycB+ViLXDoUQZMDtb4+AdaTKScXnkE1TfrZhUfQ3krCLjyA3KMtLj4eyD4m73WWTgbxQqIuPgHjipW4+GKifBqF3uisV6Ca9nxdUAHFF2r++Q3lb67pxEIRWFDkhbggG9RLy8KR6VJlH468gYK4cEbJk/rcEXeC32qkAkUbfDjD8AWRoYUsRYt4kPzhZZYCZFVIPIsDqLtezuabcERK818vwoBImT2JA+6r0caLVlB89UQIpGDY+Gr86O59PqZKPF/J4jxJgJk2X7kFrAQRACRT7ht8JdR9Qoj3TTslGfSs2h56xtmuGBSpZQ+wyUEQ6aI/KrJSBSnZGOzsQWairBwuCw2PAxbYhC4mARvh0ERmOblpxoZEAbrXfCnKDFDYapu0S8+NxnDQbfOUOgOMTGDT4xzcN6K1i0DuA8zF3ftDhP5iw7r0VbIyIEEYv92xfW3+2guHm5m0QTLlxbBuvY/oHcg0zx6ALHsUdfWAilaI3jZGOuLJODvbCNi5TcO+cwqtL7E3GgM0MHDZWdKSBxSgIDPXslgBccPM1/HbWq2AG/ZCHRcAQXuQyzvSDQBp9Ouv7P8H2MX1C8HLbr+fPjDc3vdfFOyv6WtEevwE);lineShape=1;sketch=1;hachureGap=4;jiggle=2;curveFitting=1;fontFamily=Architects Daughter;fontSource=https%3A%2F%2Ffonts.googleapis.com%2Fcss%3Ffamily%3DArchitects%2BDaughter;fontSize=20;" parent="1" vertex="1">
                    <mxGeometry x="434.6864964302761" y="1687.9910314356875" width="7.54287601646952" height="54.77808030619469" as="geometry"/>
                </mxCell>
                <mxCell id="58" value="OBJECTBOX" style="rounded=0;whiteSpace=wrap;html=1;sketch=1;hachureGap=4;jiggle=2;curveFitting=1;fontFamily=Architects Daughter;fontSource=https%3A%2F%2Ffonts.googleapis.com%2Fcss%3Ffamily%3DArchitects%2BDaughter;fontSize=20;" parent="1" vertex="1">
                    <mxGeometry x="195.2" y="1751.6599999999999" width="300" height="40" as="geometry"/>
                </mxCell>
                <mxCell id="59" value="" style="shape=stencil(lVjLUiMxDPyaXFWW5Yd8Ztn/oIqwpJYlFLCvv195Ux7GmqRT3MKgnrHcLbnlndy8Pd697HcxvL2/Hr/vfx/u3x938mUX4+H5cf96eLdfO7ndyc3D8XX/7fX48/n+9PfLXY/sv34cf/U3/DnhArF0UAx/Tw+aUAv/n3w9xT8dnlfxTClM8VqogPhIpc7xgSRdjk/Ec3xNJOD9hcK8nqIU5XK8UmhzfKTAIN9AKU+AnCmDBFj8F5JSywCwSSFFSugLjYJOACnECjiIFOcvSBhPzgMyxZkF46WAXbVtjXPStsgIliRMscyANJR1HpAo8gwIFMAuSfVJF5IChGevm4kWSiADI0njvCBKQEgpjzoZ8QEK1VSTmosPYIMye6EGamB/chrpLRxDmeY6RLkUAlXw/hJG3S6VTw3sZ5FB57KfkaQCgG2oI8AqswGA1b4DKCmgoDKpKwMhBRxbr9KZg1hhKVclnlUtkSrIwbqn6y5W+6gy1XrJnHSy0gNL0jxkuQDqqIzzACWZc8hCFSypsT8TChODpFv20isNNovWfNK1QmkYoM7tyJjJgGkDNAdoVMC2dsBMnFGpoB8ZwGnJqEQNzwB5XpIKJM4AnDwAia/pSHEBJHjwGIDjBoC+UH1N25IUMb3p8j1p0DVaGfZmva2Ih+Kl0YlDORhgbqxdGleW5DyPQothSbuKM3kXpNa6kXeBzdiIi+oBFX1BB00rgGK1+i9UaAwNUDYlCsVnFceeh4iMWAjeieni/i5+wsmVxyovJuHscISnaN8m1zaEMmZO56yt5AIuav+FBI1JF5P6JTWkbyN2U9SCtvXTAPF9pmIroG3U/GpsQM3VTsXkAAznEuM1OruUIcDE6fxSarBGLUU3BpglRQ6xLn5q8Q517Nt5w7Q5UUTg3GCWrM7ii0vnuWT6nMm9MmiYq2zOYTG0AlmH61+ZPtQ28mJrV7YygtZnbic6W4lr2px9ngGLmTgfL0MHq9EHmRNzeHkmmnm4j/Ozkm6+YFM3oMFMp8/ZDBYa32QMR2ve0IAYxhG4AMrQ+/kRtG7EynDg60pzU3GBXsNW7MyJFRw6FE1pTkpGvV65CthcNjDIgWW0uVVbQtcxzL4cSoX3Pc33jHplBPIHnPU1RlOcb5N2+iQ0FnulasPSpjLHd8cIKBA/RTfcLsR7aItHxWyKce+3JgvWE73V654D3s+pa3cB3xtsLvT64AG6V/BmtQ9bMN5V2YdDuRDvjkEjDBEciDfx6CTfeDybLvH7gyPAJAgE+tkL1evx9uPj9vbh8PR0uvxd/9/f9tqj002x3P4D);lineShape=1;sketch=1;hachureGap=4;jiggle=2;curveFitting=1;fontFamily=Architects Daughter;fontSource=https%3A%2F%2Ffonts.googleapis.com%2Fcss%3Ffamily%3DArchitects%2BDaughter;fontSize=20;" parent="1" vertex="1">
                    <mxGeometry x="415.1995938381554" y="1679.6504993786389" width="47.86145503506001" height="20.68705681323254" as="geometry"/>
                </mxCell>
                <mxCell id="64" value="methods" style="text;strokeColor=none;align=center;fillColor=none;html=1;verticalAlign=middle;whiteSpace=wrap;rounded=0;sketch=1;hachureGap=4;jiggle=2;curveFitting=1;fontFamily=Architects Daughter;fontSource=https%3A%2F%2Ffonts.googleapis.com%2Fcss%3Ffamily%3DArchitects%2BDaughter;fontSize=20;" parent="1" vertex="1">
                    <mxGeometry x="245.2" y="1682.8600000000001" width="170" height="60" as="geometry"/>
                </mxCell>
                <mxCell id="66" value="IN MEMORY REPO" style="text;html=1;strokeColor=none;fillColor=none;align=center;verticalAlign=middle;whiteSpace=wrap;rounded=0;sketch=1;hachureGap=4;jiggle=2;curveFitting=1;fontFamily=Architects Daughter;fontSource=https%3A%2F%2Ffonts.googleapis.com%2Fcss%3Ffamily%3DArchitects%2BDaughter;fontSize=20;" parent="1" vertex="1">
                    <mxGeometry x="40" y="1540" width="260" height="98.34" as="geometry"/>
                </mxCell>
                <mxCell id="77" value="CLIENT SIDE" style="text;html=1;strokeColor=none;fillColor=none;align=center;verticalAlign=middle;whiteSpace=wrap;rounded=0;sketch=1;hachureGap=4;jiggle=2;curveFitting=1;fontFamily=Architects Daughter;fontSource=https%3A%2F%2Ffonts.googleapis.com%2Fcss%3Ffamily%3DArchitects%2BDaughter;fontSize=20;" parent="1" vertex="1">
                    <mxGeometry x="-290" y="350" width="130" height="80" as="geometry"/>
                </mxCell>
                <mxCell id="79" value="SERVER" style="text;html=1;strokeColor=none;fillColor=none;align=center;verticalAlign=middle;whiteSpace=wrap;rounded=0;sketch=1;hachureGap=4;jiggle=2;curveFitting=1;fontFamily=Architects Daughter;fontSource=https%3A%2F%2Ffonts.googleapis.com%2Fcss%3Ffamily%3DArchitects%2BDaughter;fontSize=20;" parent="1" vertex="1">
                    <mxGeometry x="-290" y="1250" width="130" height="80" as="geometry"/>
                </mxCell>
                <mxCell id="80" value="" style="rounded=0;whiteSpace=wrap;html=1;sketch=1;hachureGap=4;jiggle=2;curveFitting=1;fontFamily=Architects Daughter;fontSource=https%3A%2F%2Ffonts.googleapis.com%2Fcss%3Ffamily%3DArchitects%2BDaughter;fontSize=20;" parent="1" vertex="1">
                    <mxGeometry x="78.1" y="641.4" width="539.6" height="198.6" as="geometry"/>
                </mxCell>
                <mxCell id="81" value="REPO" style="rounded=0;whiteSpace=wrap;html=1;sketch=1;hachureGap=4;jiggle=2;curveFitting=1;fontFamily=Architects Daughter;fontSource=https%3A%2F%2Ffonts.googleapis.com%2Fcss%3Ffamily%3DArchitects%2BDaughter;fontSize=20;" parent="1" vertex="1">
                    <mxGeometry x="197.89999999999998" y="721.6599999999999" width="300" height="40" as="geometry"/>
                </mxCell>
                <mxCell id="88" value="NETWORKED ASYNC REPO" style="text;html=1;strokeColor=none;fillColor=none;align=center;verticalAlign=middle;whiteSpace=wrap;rounded=0;sketch=1;hachureGap=4;jiggle=2;curveFitting=1;fontFamily=Architects Daughter;fontSource=https%3A%2F%2Ffonts.googleapis.com%2Fcss%3Ffamily%3DArchitects%2BDaughter;fontSize=20;" parent="1" vertex="1">
                    <mxGeometry x="78.1" y="641.4" width="307.3" height="98.34" as="geometry"/>
                </mxCell>
                <mxCell id="91" value="" style="shape=stencil(lVnJThxBDP2auVqucq1nkvwHEhBGIQwayPb3cWdUnbar5yFuQ/Nc7fLyvPRBbl4fb1/uD5Ff386nb/e/jndvjwf5dIjx+Px4fz6+6a+DfD7IzcPpfP/1fPrxfHf5++V2QS6/vp9+Lif8vsj1Tl0Wqch/Lk+YUv/34MsF/3R83uIbJYsPVATgKyU2+EiZAb5QsHihjM5PlILBJ6oF4CNJM/hCy19X8UycDL5SA+c3va89v1NB+FXd1Z6BMnBAC9SsgYJQSdcFaqPqBDI0Uc3D4qtApZ6BgNrU2kiDKLTrAqVTdEERKYE7FI0Kq9LiZhAWRShkK1CJkQBTrFagkwAr5TrctAaqZgK4dM7E1tOSoEo5Tm8olECsZvZmlQaDNWksW8elQFKBQB5uWgVk8Me+gBBHK1BgPqeVflaBTgGoJJWqTbisGQISSK3erR9yggmkfvUCdZDgrkBs1K0fCs6HmKnZ4CuRegACcXpDhnfQhHR+KG0Q4a6AprzYBKqBAgi+kKhZP1QZ0bUvEKm4N2hooDewp8raBy3sc/dQeOCVOwuIjOqJUsk5IFbyVN/eyU9KVv/WYC1cw3ItJQx9pnRiS6EWO0QwMsy94gXqI8MaKz6N3NsPOuoOn0eMXMG7LNBmoAF76vkOX6mArJn1bxSBPuyLjjZLqDQrvng8qmo8CswGL8D+PEreBo9oJVAMEx6cH3x+KZ4B9WrZjxMe2Ef9O+sP+gqhmDw+QnzmyZ7APto3TXhUm/T8yZ6o4svQdoPH8dym+3aIl8meHcZDtfkSWMsCDIg4ObiDgNAAnS6ASjGPZmODR4Syl2Co6u0lMBpueNDBNoDg+a5BWwIUVTA/S3RcwHQSmOzDkEDn+2J8mc5HNV58QV3uCwk3Tfoge8qOPRNMsI/h12jfFABMuDwXGIh3/bcWMBzPflbMgyKv4JuzP56CwqSPegQQ6NoerfgA830uAAztOQ1l2gChhimNzn/TYAmamEis/trAMWzgnD3bO7M3JauPNqAM4j+wXzZoiyvgBUtPbEuMNtEVMXQeFXcVYOiyMI1LOgigHNagK5Z0y9rH7gvIWAhthhkUpeoG/waGZtXGvlq/6UAWgUqiCliz6sgHiWVagehQie6gg7YrlTq2MgrtaZjRwRg29zJ6vc3ojchFZ/XsBAKsTqn6fl1vVYEfMvu9jxTYoOXoE04ELihy9i2yDuNoRMmN2O19+mgaru193KUXVsCbpW7voDSFxtZSqNsUVd5EftAMdnNK6GMDsS8gnoeXLEdvKJ7IQoadr/JctmYNMvau+0wZpzcEuE5r2deGDktDq7530QcI373bMuyVtfL51djo/vfx4qle4Gy5VG6/F0epo52B2/iEsVi/tnd3ucn4/GlvzXDttnRC3eOxPm6JxiNT9/FtMPoGj+zffC+IRxvFu3h453ztdP13EtRaLKNk8HgUD93PTgxn42USY4ePaBfWPQspecPWZWqWGQfcRz8kvYvXH/+/Wj0cn54uH722//dfufTR5QuZfP4L);lineShape=1;sketch=1;hachureGap=4;jiggle=2;curveFitting=1;fontFamily=Architects Daughter;fontSource=https%3A%2F%2Ffonts.googleapis.com%2Fcss%3Ffamily%3DArchitects%2BDaughter;fontSize=20;" parent="1" vertex="1">
                    <mxGeometry x="123.32984701525766" y="777.6997313185577" width="107.14225686282816" height="400.551964938051" as="geometry"/>
                </mxCell>
                <mxCell id="92" value="" style="shape=stencil(lVhJcttADHyNrqgZzIqz4/zDVZYjVRTLJSvb7wNFNbQAkp3oJtM9QywNoMFNenjfPb1tNxzez6fj1+3P/fN5t0mfNsz71932tD/rr0163KSHl+Np++V0/P76fP377emCvPz6dvxxueHX9VwilsshDr/HgxL/Pvh8hR/2rzfwTKUbeKfU1uGFajDwmCiEdXylyhbfSIA5jVoyeDW/8Tpextsnb8OwcBEfAyXrb+pUEzgQh73jQG4UQYQ0ICWbA6VSyOBAoVjMgZpJCjhQqVmnW6JcwYFOodkkR0ogqlEoWZO6XgHSxoGKzZswdWCS8o6tDxIog8QpM7INay8wcYkpWB+aUOzgQBsWTwfiCMNy6WRfDJUhWUukbslXNAzAhyJUbDFn7HTVKNk8JMzWlr3TWlIMoqTMydYHZorApF5JrElKeAEHRCvOZlqoAxekeIs0LwjffIcMkKqKr83hES2kj3h84AO6f2pAN3hQa6I0jg6PSKT4wg4P46Phdj2bErZHHCOwvwv4juI5syfBFj/3FxfZPJ7KH1AB83xpDck9fMjYX+VbdfiC8ez5j+aN4oPrEZRQvrSAbTx5aIZVvLUnUkPx0Q4lDh9w/RZfLwXxQRWHr1/UsDRfuTo8kjiKl3LP/TIG3X/aL9Syjw+Kv3h7dOxASRS8iOIxdlYL0ktMSCCZFwwk6L34Rsni22DsMl4Vmk2wajYGDqj4KbZDqEDK4A1dRbErmTKE7fIYrpTtG1S+CPC5in9DDkNcLB+IxLYKsoo8kOWS/NgrfSiqZTlUZ3KoUgGFnKe5OOWtQFma8iiUSQNi5ukyEG0rUpUZkSydiRXBJik1o83DpR2AxF2GqeuOAfcXVe+un+orGC0UzTcw0YkGJrguFNntB4L3gyko0wEeW8/aUuR6kgrPhrYoHprjhkxIhehi5xbZomEA/O7U3NTUJ3AzdU1S6YuahobIdm2taNQzkt8z9QYUUhVNTlbrnEBbI4lrennoqhU8u56nCxq4XwvLxmeS5StwH07qwNsFeATJnRmToIQKXkHxkAwr8FIcHLvqxiUP69YCb4sxwvUnDrF6o7aAMarNvdiCe/ps24Pag71UZ8iZ5I3BQ+/OT1v/hOuPj69oL/vD4foR7vb//qubPrp+sUuPfwA=);lineShape=1;sketch=1;hachureGap=4;jiggle=2;curveFitting=1;fontFamily=Architects Daughter;fontSource=https%3A%2F%2Ffonts.googleapis.com%2Fcss%3Ffamily%3DArchitects%2BDaughter;fontSize=20;" parent="1" vertex="1">
                    <mxGeometry x="103.23119198702352" y="1110.6516933237226" width="94.96133105917806" height="59.71055665694712" as="geometry"/>
                </mxCell>
                <mxCell id="93" value="" style="shape=stencil(lVnZchw3DPyafUWRBC88O85/uMpypIoiuWTl+vv0ZIu7Q3CmVX7bAxgeQDcamIt++vH45fvDJYUf72+vvz/8/fT1/fGiv1xSenp5fHh7eseni36+6Kdvr28Pv729/vny9fr9+5fNcvv0x+tf2xP+ufoFSW1zSuHf6w9mktP/v/x6tX9+etnZq9Q623dRYl+k59m+SW7n9l2yzfaV2scovc8ORRLZUKwSyuyg0uK5A67IrxDFyJZSFZ3P3I06aBpXfnNodEtqEuPsUCTauUOuEt2WsGYmYdMR1eHQkBf13KEG0TmRWpXUiUMVcyskMT132P6eD12xJbJCQ2aG2QHZWEjuYYU5+WqSSHKp4wzztRasSVawIFFnhyyFBM6SVLdCoGcwPG++pdxoagAubcZDBsZJttotrjcHkAjJJVsQp00CiTTOYPMKmiWQOADBDg8a+aGDlPlaQTyFpQZYa14BKI/MQaXPeAB1GgFQDx6iidNMW2gGTMW2BADV+VpjpwACvtIcuIjABYrp6FYoI3+PHXSw0M0h0/IDmjG3JZVEIg1AVueQJJE4lCpl5iWUGFrhsrSZZmKgJQvc6iuQNAKHEqUmZx/ICbJ5Ku4UPSCI5qh7hPGsmJSZxOpY8Ni+ePsywHRsnz04s0R2XpCDQz8tVeC3PO8n0fvPS+FJY8Fje0iSuYyAstl++hAsd/vK7r8PEN7tjaAyL9wVJXCxUFxCU35HfNWhXpTdZx40tbMnvLXdf/X27LzRK4vI8zl65o08vsEDHvFl+wleMwda83P0+RzGBZ/ZN2+f2H7Suv/A8KteAAdaBZAPcXk+s6+DkHf27LxNkvrzsni1AY+7fWb76eNxOzyy5/chEnf5wPK/eU0XqRzC/XR19lTsF8/nH+AFfLvgi+FRvfDgBRL5lrx9YvZ4nN8PzU9ct49XZ/mDcPr8qYyff9bePL+FoUGO63vweiBSiQ/74qQl1a4lelWmtDODve8IKH4Llp+fzztw6B+Hrzrk+5m9awfqKLDH9mXInbueYfUUiq/N9n1cwLF9k+71WGb6zRZVzAm6LgUDEjQwGZ28woLIpUI9S3UlXvkKS7cOoR4JKNE7ONCgFVAStbZUpYi4kC21ZaaBdobplGYLj9o41VkPVx3QAA3WwzXfzgBqjaSe3eK6aytZ4NAaO+xsEzPefPe1NSZos+7joDf8HTvYOOK+vSfXGkPwAnabIJB73WaScyBQgxpZwhZJvYkGNjapo+Tt5ixsGmXqSQB9YOUjhzoHAq0pnYRWLxMA88QcFt0L1LJAAEFu2Lqhlo0cgo9DUzpyQH/vWqF2ax7PuNila+PNcV54pieaGlAjjvp6GddwPGwtfuTQO+0PUA5s3hJizwpuWgSYJTrUAG+54RJ4gUlIcK+Lg5Wx5rFD8jXRKhW15ken1sbk/ziVfCYBsrTp9WQPTmBNl3qut9udndjnxd7I/peedLNnMV4GXYF3RdEPHT52UFt2RE4cliw1ynjLyPSDGw1e9W+FgiR1GEOtvT0571JEYF+5/fKmqxAY/+ybsY/t8eH+Gu7b0/Pz9S3e/n//2g4/XV/56ef/AA==);lineShape=1;sketch=1;hachureGap=4;jiggle=2;curveFitting=1;fontFamily=Architects Daughter;fontSource=https%3A%2F%2Ffonts.googleapis.com%2Fcss%3Ffamily%3DArchitects%2BDaughter;fontSize=20;" parent="1" vertex="1">
                    <mxGeometry x="397.52915670718085" y="795.0213113504833" width="67.15428674986879" height="376.4512382674993" as="geometry"/>
                </mxCell>
                <mxCell id="94" value="" style="shape=stencil(lVjbclshDPwav2oAgYDntP2PzMRpPE3jjJPe/r469XBqCZ/15M0hqwNIK2nFju/enu5f97sU3t5Px2/7X4eH96cdf9qldHh52p8O7/prx593fPd4PO2/no4/Xh7Of7/eL8jl1/fjz+ULv892gUJYjFL4c17oQj3/W/lyxj8fXgy+JIuPFAThWzH4JtTCNj4S2/O0SL0jfI8GX4VK3cYnqtXiAzH4PlNlgxddAfhMrRl80fumbbxQ6AafO1Xgz0rJ4RM13sY3yva+LBQBvlOx8dIV9P2ohLAXVpd1ZBApW4/GRgIYFxMlS7moO4AQq0GznNBDIo7q91q2TqWENijjhgO/ZtF1zinFxOEF4XV7iy/wwkoisaTo1AvAK8Wcg5S2YANmYhfkALOAq/eoEjejtGEKdgfOJOAOufnE10SIINFKoegMOoyCRBJrsKQyuIM0SjZ3tFZ0cKSafdy0GGUQhxZ84LTaMcp+LS82/bWcJpBsWs3ZBq6VUdGuGyg1LVebsgvt0Cm5joMDpwYuDmpQQBzUwNXgzpQiqmFzF8SR62uCrQYZFjE1cH1EHceAfWrgUk4NGtqhjRNfdPKIIqetYWr9DNzU6+RXGbHcMshpugMoxGoQyuQldGkZzekyDogb4vv/Eml0JLlGJlCY9A7RZpDSVRCXKpXJIKIdGoVJg6HyrQZ+hwhFiZLPxyFRQNToo7pfGGRs0KakRjpvybgpDoLoPRvkQfjNI01sDfhIJXqDG0cKUwLBHZoXV0vGYQMfOBlaYpN8Mh0J5/QHDdTr7khMEdyhTdTQFZRxTXewXtIV1CCqxsHmg64IEt3Jl/vKcIoR8SJXVLgDahQ9gK1LEqAGLeyLwLICMi7L0FOr/imjsV43CKNsrZKswTtwGSp7NYjYYL3iqhIzbLsqdKM9UuyDXdcN0himLpRuBYJpkerT7ID6gw4vbiDThEPjj3i9pANRQQOxjGawGhRYx/TfTmCpkzqSP3nk4xqGAvt6nMV6hNzTK7pL64CA1I863dXifKNNe3lVApStjar1Ualwaq2eR5JvjPXuwjVCosoQqCte6yw4TxmPHGvJS3A2yb4ZtgpFyVy0I1Vwfh67r3j8fZ5kWIN9iv2zhOKRGuYx5az4Dgel5J+pFsGORvRJO3dYuaJ/MbiYOTYM3LvNzQ0CezzSImGMK5cOAikchvsuAwDxbtpeAgwCME9gFfbwj79b3sLrj/+PpI+H5+fzG+vl//2jqi6dH2T5818=);lineShape=1;sketch=1;hachureGap=4;jiggle=2;curveFitting=1;fontFamily=Architects Daughter;fontSource=https%3A%2F%2Ffonts.googleapis.com%2Fcss%3Ffamily%3DArchitects%2BDaughter;fontSize=20;" parent="1" vertex="1">
                    <mxGeometry x="398.1090998116242" y="755.9896150280003" width="88.99468315692002" height="64.08972309591218" as="geometry"/>
                </mxCell>
                <mxCell id="95" value="HTTP" style="text;strokeColor=none;align=center;fillColor=none;html=1;verticalAlign=middle;whiteSpace=wrap;rounded=0;sketch=1;hachureGap=4;jiggle=2;curveFitting=1;fontFamily=Architects Daughter;fontSource=https%3A%2F%2Ffonts.googleapis.com%2Fcss%3Ffamily%3DArchitects%2BDaughter;fontSize=20;" parent="1" vertex="1">
                    <mxGeometry x="90" y="910" width="60" height="30" as="geometry"/>
                </mxCell>
                <mxCell id="96" value="HTTP" style="text;strokeColor=none;align=center;fillColor=none;html=1;verticalAlign=middle;whiteSpace=wrap;rounded=0;sketch=1;hachureGap=4;jiggle=2;curveFitting=1;fontFamily=Architects Daughter;fontSource=https%3A%2F%2Ffonts.googleapis.com%2Fcss%3Ffamily%3DArchitects%2BDaughter;fontSize=20;" parent="1" vertex="1">
                    <mxGeometry x="382.23" y="920" width="60" height="30" as="geometry"/>
                </mxCell>
                <mxCell id="97" value="REQUESTS" style="text;strokeColor=none;align=center;fillColor=none;html=1;verticalAlign=middle;whiteSpace=wrap;rounded=0;sketch=1;hachureGap=4;jiggle=2;curveFitting=1;fontFamily=Architects Daughter;fontSource=https%3A%2F%2Ffonts.googleapis.com%2Fcss%3Ffamily%3DArchitects%2BDaughter;fontSize=20;" parent="1" vertex="1">
                    <mxGeometry x="60" y="950" width="60" height="30" as="geometry"/>
                </mxCell>
                <mxCell id="98" value="RESPONSE" style="text;strokeColor=none;align=center;fillColor=none;html=1;verticalAlign=middle;whiteSpace=wrap;rounded=0;sketch=1;hachureGap=4;jiggle=2;curveFitting=1;fontFamily=Architects Daughter;fontSource=https%3A%2F%2Ffonts.googleapis.com%2Fcss%3Ffamily%3DArchitects%2BDaughter;fontSize=20;" parent="1" vertex="1">
                    <mxGeometry x="355.2" y="960" width="60" height="30" as="geometry"/>
                </mxCell>
                <mxCell id="99" value="JSON" style="text;strokeColor=none;align=center;fillColor=none;html=1;verticalAlign=middle;whiteSpace=wrap;rounded=0;sketch=1;hachureGap=4;jiggle=2;curveFitting=1;fontFamily=Architects Daughter;fontSource=https%3A%2F%2Ffonts.googleapis.com%2Fcss%3Ffamily%3DArchitects%2BDaughter;fontSize=20;" parent="1" vertex="1">
                    <mxGeometry x="40" y="980" width="60" height="30" as="geometry"/>
                </mxCell>
                <mxCell id="100" value="JSON" style="text;strokeColor=none;align=center;fillColor=none;html=1;verticalAlign=middle;whiteSpace=wrap;rounded=0;sketch=1;hachureGap=4;jiggle=2;curveFitting=1;fontFamily=Architects Daughter;fontSource=https%3A%2F%2Ffonts.googleapis.com%2Fcss%3Ffamily%3DArchitects%2BDaughter;fontSize=20;" parent="1" vertex="1">
                    <mxGeometry x="370" y="990" width="60" height="30" as="geometry"/>
                </mxCell>
                <mxCell id="101" value="ROUTER" style="rounded=0;whiteSpace=wrap;html=1;sketch=1;hachureGap=4;jiggle=2;curveFitting=1;fontFamily=Architects Daughter;fontSource=https%3A%2F%2Ffonts.googleapis.com%2Fcss%3Ffamily%3DArchitects%2BDaughter;fontSize=20;" parent="1" vertex="1">
                    <mxGeometry x="-53.25" y="1270" width="570" height="60" as="geometry"/>
                </mxCell>
                <mxCell id="102" value="FORWARDS REQUESTS TO CORRECT HANDLER" style="text;strokeColor=none;align=center;fillColor=none;html=1;verticalAlign=middle;whiteSpace=wrap;rounded=0;sketch=1;hachureGap=4;jiggle=2;curveFitting=1;fontFamily=Architects Daughter;fontSource=https%3A%2F%2Ffonts.googleapis.com%2Fcss%3Ffamily%3DArchitects%2BDaughter;fontSize=20;" parent="1" vertex="1">
                    <mxGeometry x="530" y="1242.5" width="212.3" height="115" as="geometry"/>
                </mxCell>
                <mxCell id="103" value="HANDLER" style="rounded=0;whiteSpace=wrap;html=1;sketch=1;hachureGap=4;jiggle=2;curveFitting=1;fontFamily=Architects Daughter;fontSource=https%3A%2F%2Ffonts.googleapis.com%2Fcss%3Ffamily%3DArchitects%2BDaughter;fontSize=20;" parent="1" vertex="1">
                    <mxGeometry x="-53.25" y="1360" width="133.25" height="60" as="geometry"/>
                </mxCell>
                <mxCell id="104" value="HANDLER" style="rounded=0;whiteSpace=wrap;html=1;sketch=1;hachureGap=4;jiggle=2;curveFitting=1;fontFamily=Architects Daughter;fontSource=https%3A%2F%2Ffonts.googleapis.com%2Fcss%3Ffamily%3DArchitects%2BDaughter;fontSize=20;" parent="1" vertex="1">
                    <mxGeometry x="103.38" y="1360" width="133.25" height="60" as="geometry"/>
                </mxCell>
                <mxCell id="105" value="HANDLER" style="rounded=0;whiteSpace=wrap;html=1;sketch=1;hachureGap=4;jiggle=2;curveFitting=1;fontFamily=Architects Daughter;fontSource=https%3A%2F%2Ffonts.googleapis.com%2Fcss%3Ffamily%3DArchitects%2BDaughter;fontSize=20;" parent="1" vertex="1">
                    <mxGeometry x="263.32" y="1360" width="133.25" height="60" as="geometry"/>
                </mxCell>
                <mxCell id="106" value="HANDLER" style="rounded=0;whiteSpace=wrap;html=1;sketch=1;hachureGap=4;jiggle=2;curveFitting=1;fontFamily=Architects Daughter;fontSource=https%3A%2F%2Ffonts.googleapis.com%2Fcss%3Ffamily%3DArchitects%2BDaughter;fontSize=20;" parent="1" vertex="1">
                    <mxGeometry x="430" y="1357.5" width="133.25" height="60" as="geometry"/>
                </mxCell>
                <mxCell id="107" value="COVERT TO/FROM JSON,&lt;br&gt;RUNS CODE" style="text;strokeColor=none;align=center;fillColor=none;html=1;verticalAlign=middle;whiteSpace=wrap;rounded=0;sketch=1;hachureGap=4;jiggle=2;curveFitting=1;fontFamily=Architects Daughter;fontSource=https%3A%2F%2Ffonts.googleapis.com%2Fcss%3Ffamily%3DArchitects%2BDaughter;fontSize=20;" parent="1" vertex="1">
                    <mxGeometry x="620" y="1370" width="180" height="70" as="geometry"/>
                </mxCell>
                <mxCell id="108" value="" style="shape=stencil(lVrZchw3DPyafWWBN/nsOP/hKsvRVhTJJSvX36eZLVBDcLZVftPBniEBNNAA5xI//Xj88v3hEuTH2+vL7w9/X7++PV7iL5cQrs+PD6/XN/x0iZ8v8dO3l9eH315f/nz+evv9+5excvz0x8tf4wn/3HDe+TxAQf69/UGctP//8Ott+dP1eVnek1meyPLooizLvYvh/vLk2vr04JK/vzy7tj49Op/uLy+udbO85/vLm/N+WY7dkc10NYQuz66SzXhxfV1fXCWP98GV9bDV1UjWJxfX7TdXmWOL82FZ311jz29OyupaUe+dAhApxp7eu0bsD+cH84bgOjERHJTXI8AIIgSwRYTPzhMjwSbRAIpLhcR/0A1MQKVRFJMrKx99d4H4IVbrZxiaBVLsrscVAEMTQAour2cAcVjopeR6XQHZBeLphDMY3oMMxHGpu7z6AdEtnWQKr8+bAPCVZKIc1YgzWcCsDJBdMQCvDD8HVN3ABCB9sTN0/fcEgOOV5DvZEl52ibyhwNOrH2JxhXi6JE24E1Bp1itZjTgBzTV2hmqTwIhfYtaC561vSF4z2ymgiuU0Aj4SPlT4dd1Sii4TK9X57wlINBfXbHNrKk7YGYrLK+NAqcDeALqY4tY0eZ4DtswHDjJPN3Fl3VJGxSNvaN46LgfnSRJowYY3SBtIMm5xAySaBNqmRwbLiacbwnvN3rnQGtcmvyagqSA7B1Rb45AWMjt0s2mmeKrwWrcFBWmhEEBHYV89jbQQCKf7Ln0y1Rrda72ZgKrheA4I26Gb+v4cEJ2sjhtpgfgBACvHsEl26KQFagKQ7onjADBZo+IvbEtJ5ewEZNfZobMtu7XS+gCA8QPSgpAk0IvVfCMtsFgquoEJQDJmVgK/1lQJ0rLw7kiM66EHadmhq6VoqzRr9GY1HyglrHNoesQpvYUmYwDKSiAwpJNU2butoggWJnQBMHUavmcE8iL21J2XoGGmNVzx0s6CCdKiWADToX3Llb3ztIGsYuzaVMreBSQLyMzVVRvaA0AYqaut7CMeOaBFC4jMrM1qOAA8OzQqyrYlz/zQbJ8+QoOdoSuFDwBq1q6hdgA0Ht9GzgwSMsqhXRALoGkDWzJv4I3cOPQGKIzUm9IFgGnpEZumGX1n7d3Y2CjH1Pcw+0ZqOjWptpMDgOa+nUGd6vtTjhZWUqp2VQdAYFaawXmIPqoFZpN0ACTOINlIzXr2k5LyIUdL397AQ+MnAXtolI+slAwg0y4IzzPDSejAwt4A9W0AXll7DxC30k7PkO2WoMep47JVfWgRKB+yHeCOroUBki2j6IsogZKtimjV2NBrSN2VD5CJjQGilVjoTz9Q30bPoAOmAmjrFaGNqVmD5TTUNw3v4GTNGjXwEuRt5kMHwcYIAFizCnec2CSALqiwnr1rYjz0WbQbbXrEQydXyJbalsjQKwprX6utQCVQKdA2io5+lx062zSDjpplDfBr79kTG1REVQoTUOmkr80592HuwDo5ENJMXDNPAm1rwXOkoQEG2y0Ftdu9CZPpUbLXzuscUJXyh4EREyejuzVjtabjl3NAsp5OvN8Fg/uqsFKhwhUMNtIhZXqGMtXRYZbIZCUYHMwZAlWJpdhBdkL25iNavzouCS2KZcvesVOtAQabzi9WPtMVVUeHuTRTlbnZOVzMtGvKRfl1mK2zGgdCmqFXjDQ0xmzSvMFTTg+6rH4YNxD8UsQ4blxXkUSWNr0UKt1SSjpqnICiNwbngDnBnYCsBeAUgMjJq+MCn60jEPbbLPqGZP0QRFvsc4C3ItF32h/D6qbGjTs/djNarObzRbXBOSDZ4POZJuPgt4vOREuW73bS5yO9iscRrZUC/TIAO7YAT/2ADdTtwplx2m93r/zGAo+LRnpTt205ptJZ0XZPW3U2ep7z7OYLnaYlK8SyDmnOg9qOimdTcB4/duITac3ZMlegN9Jix3SBCgWxOoFfE4nK9hk29CMCsVMYTwfWoh3p+3JGk21I6mmlFJtJhN4mbV9YCE0jsEwwy1m5ENsGChWxYmuFUKEvlt1c/Im9gxU6Yv/pr5w+WI4f3j+o+nZ9erp9j3X8v/0AC3+6fbwVP/8H);lineShape=1;sketch=1;hachureGap=4;jiggle=2;curveFitting=1;fontFamily=Architects Daughter;fontSource=https%3A%2F%2Ffonts.googleapis.com%2Fcss%3Ffamily%3DArchitects%2BDaughter;fontSize=20;" parent="1" vertex="1">
                    <mxGeometry x="-14.737901858166424" y="1432.9327965431835" width="248.17706431882516" height="178.50100878610056" as="geometry"/>
                </mxCell>
                <mxCell id="109" value="" style="shape=stencil(lVjLbhsxDPwaXwlJlCjpnLb/ESBOYzSNgyR9/X25MLQxqd1JC+RgbzgWHzMktQe+eX24fT4eUnh9ezl/O/463b09HPjTIaXT08Px5fSmnw78+cA39+eX49eX84+nu8v359vFcvn0/fxz+YXfF1yl1hZQCn8uDzot3/Tvy8X88fR0Zd6pVWMeC3Hft49MuRtAyiQMAJW6PYF5PNkEJD3BRpAVAEJIQhItoFNEAA3axlAyxbIPUI+5WECjLgBQKbABCFMFQedATSygkYAYcqZqg65MCRQuN8rBAipJ2AdoTpxLLVMClS6dJFuAngCClkxsXWqaJeCS5iTYE6pWuu0DahxEWAGZcgQAdYB9HRi4VIWajUHCqMw2QJlj6a2JziCtLfos5TrouA2Y2KrsyoBLWtdq9cBaGZDWNgWdCvUMANWfEDukRmuULPkqFcButS8uq1DRrVO2XSmNsmy3yUmfEaqtp+HusA8joG377P0JFADtuhCzsy8g3q5duDj/GyBdV125rk0VjZFpjggFoAK17665jK6/Z5+d/2tFtgEqWzfY0uj6exn1FcYi6IWCc0k5h1ziQclrAFBNV+XPLmFWtzIFjXTZJl2G8WRXlxbQYD9t09Qpg4h7EbiGzSQop8H3ukgVFS367qu6Qbzmkb9/1GXx80N1j/ypE6+HsPdo3Xx+AtZx9flH62AMa3zvjRcVYBuAOlGnYjO6jAKU0uZVsMyCD3qjG2cy9oa95tvdhE0YoMNi3jhR0GEaTwL7r+rG9V9dIDsSZh7r4lqGNJrB3loh9oTa4fKl62K1J+gakECWdJdyXFX1IfFI95VWOSFq6AIp7rLT4VjWtd2R9Yq/24g0hsB6hIwb0PaeXcZlZQVojwKSU665qJe8ottI86XWWjbQhHnmhkAycZi4gQWh077aNiby0SXPFUK0caM+0/2tUBWExnOU0ehWQIAu6c022sakpSyw9W3s2ejeWbyA9CKKLoVp2hfWLWjTfh01qz3DZq/Mt/7ECJfgqdMvywLQTvAVUPcBicKYG++rBdJy9JuI3oqACJTA1lxgcXmsr1f7LEjN2pyv1hyQmezficgoxQ5x3HwSyAPxO0iFe2n1K5rOHjQH/u8F04fm+uH9Xdb96fHx8irs+v/+3Zc+urw3489/AQ==);lineShape=1;sketch=1;hachureGap=4;jiggle=2;curveFitting=1;fontFamily=Architects Daughter;fontSource=https%3A%2F%2Ffonts.googleapis.com%2Fcss%3Ffamily%3DArchitects%2BDaughter;fontSize=20;" parent="1" vertex="1">
                    <mxGeometry x="202.6904916271119" y="1580.449051525999" width="52.74361407240713" height="40.57423491708914" as="geometry"/>
                </mxCell>
                <mxCell id="110" value="" style="shape=stencil(rVnLktw2DPyauaJIgM+z4/yHq7zOTmWz61qvk/jvDWVCjdiS2uVUbvNgiwCIBhrUxd59efzw+eGi4cvb68vvD39dP749XuyXi+r1+fHh9frmny72/mLvPr28Pvz2+vL1+ePt++cPy8rl0x8vfy5P+PuG601KW1Aavv37Sxct//zy6w3wdH2eASnOgCrGATHPgCzdCKBK7TMgSewUYGEGqAQlgIJOty6WCSBLBUDhUUqSZ6ebSmUAkzCHtTbpgQAihrUmaSSs7mKYo1SDlEQAHqUZUIokEtZm0usMULFIAO5DmgC50VzymCgAkhSSGjWL2QyIfAeVNDud3CSyQ+mSdQZ4slQC8LCWGWCSiEnFpAEgDg4eA6KE+RzMjWzngCXqc5SsUormLBl2KCNuxwBFTluSTnzIQcJ80uZRItmadkXAdFDqGJBGTFZAGAl/DIiDkAOgXioJwKNuM6e1SmOAIm12Wj2s5Bw8iGlODc0SyEl7TBRMMlqXPCZhTg11hpD0dhc77OAsJya5xZDesUsjjHOL25x8sdFC5gb0Oayx0lxSd3qurbHQQuYGKADyqFTHgIL9ISZRElb/u0OUjKaG/53nbI06Cs8xQEcybwCBZGsM0mdOR6+txIcufa6U/gRGh4ZlrEsl7aeMFr623FGkjuksFRouTVPD6GTaeKK02Zg0MuRweRCba5GTjC6H3q8SSXruOByp7QGlSKS57MbMkfFTpcZoh+WMi0FygeWRZLHv3WA5U4Lumf7UcmAtN8aTAJ/OKKsYd04Pxbi7M/zpwNYhgk9sh3qzbneyvELnogkcx7/35dyYqLC8kuUB1bovJ5EJo6Hdl2eakYrGcHoEKNyjyZ8tx1Nl8nPXqbwo08KhmGKZLk9IPu5qrbA80CSIaAztN6NObMj3MxkZhsj9P5bb4NomCUjhSGi7SWH6ekxy92YTydPrmEXXuUsSoUcb9fne+Wgr25XgRocDVwEZ+3Zmz1/ZudEFVG2lUaQ3woOpXhdjEP64SsJjQN3toKOxnAlAUBOuv9h8sxAPeJ5p6/EEM6jfhevqhEOde2UMUHBcWXQ16ygNFZcrd+a07SttpDc7Pq4UaCtKU9sHojZHaZlv2A4VlfvCNZIatorQzYyW2dioOJguIxIDJLxGcQIZA6z83UyylQ/XWI6UOp1tHNNmGi9shywdhutMJWpu2Dus0HGl7LSYeToSApU0hpNVkgdKoFKx0ftRsku/6s+bGedHyaJUDbu3HyWbAmtBJZ9XOX12YQYzmh8lC2uLo7avAF41WsJuUvgU2Opg8ArIVG+1jiaVToVxVzyHmsZt0tltLZyDx40J++7D35xLTYfMO7txBj40fwTJ1l7x4JozhF1Rt3GPs3bdSAer5Z4fbv6NinAHlJkPnR9cX49pBdQx0p8BwOm+5u+JNNnJ5c7v5JYtKgLYzeUC2O3A5MyB151f/XdMpuUR/CDgyvnu1RnAYAYJXGvfo7jdgtsEFOrrdc9ZvvadE5TVO9m6BO4HjDAEsKvL//Iu7EcA/3B/9fbp+vR0e3O3/R9f1flPt9d89v47);lineShape=1;sketch=1;hachureGap=4;jiggle=2;curveFitting=1;fontFamily=Architects Daughter;fontSource=https%3A%2F%2Ffonts.googleapis.com%2Fcss%3Ffamily%3DArchitects%2BDaughter;fontSize=20;" parent="1" vertex="1">
                    <mxGeometry x="63.845563982287786" y="1436.823159688699" width="235.88992355867413" height="178.9113396958178" as="geometry"/>
                </mxCell>
                <mxCell id="111" value="" style="shape=stencil(lVhJcttADHyNrqiZwWw4O84/XGU5UkWRXLKc5fcBw5AhwLBdulFUNwdLYyF3/PB2eHrd71J4u10vX/c/js+3w44/7VI6ng/76/GmVzt+3PHDy+W6/3K9vJ+fx9+vTwNyuPp2+T484efICxTaQErh13ijd0r1z53PI/50PBu8BINvlWLfxkeq2eBLpwzxYvE5UQjbeP03GXyq1CPCt2jwkSkCfws1tniqDZgfKVl8gObHNp0+x4cSMj9S6AYvxCCcg/02njFTBgaxOmAFoR78den/hEaV78lAzlRtypipJJAC1YSNEQs1AQShbH3IhUreJlS12BJKgCptTN3JOkOTeqBodVcaCRBSL5TFEKoqCfggweehRmrgBGnUbVgrUyuA0H3iqmoJEcRrqZbpzC2CU2tVI4H4lCC2HJoGGjktU9RnQqIK1DqY5BpeJgFqHZy2mdYO2VHi+qTNmdCxD23K64KAxCd1FaWOna6UiiVolaPEFarFOw3VWlYnMA5roejyEGHXGE6whCrTI7YIxZqkbUEQoXqTVN4R1cPcGBcFBKOkUXcnMFWU6T5Ng8UJERdQWJUoY3lX50P76ARhnwdGIzTMI3OR6o4SIT6uWqNoKVEC2+aqckVbj8a1uQpq2KROwXo9lBwu6rTqAg2ZdDdhnh8zocCi7tkPCK1RtJw0nbvO6QC3E32er6C5VW0N6uBqVB+BVoHux6jeESBXHfzdDjmd7KioM/shl3UCgArilQ+6ETHwQVe87BYmgRMlsa9RxvtPnOfHTNDmitbWlTSSrjOo9VHMKzyQUvdZ0DBntF9NIV8sPwwcaH4d0wWNgf3VF5skmLNCYgMqeWrlG/hiRaSzooB2Ufxrj+CdIU/ezXhtgSD+7Fe9oY0jyXk9LLr4BiGuDoCK861FHc7AYS3j4gOK9u0wvRXN+DK9aW3gnYBUEEjQq5mm7bgAAd3/Xv4RXi/+fQR4OZ5O4zeE5f/+o4HeGj848ONv);lineShape=1;sketch=1;hachureGap=4;jiggle=2;curveFitting=1;fontFamily=Architects Daughter;fontSource=https%3A%2F%2Ffonts.googleapis.com%2Fcss%3Ffamily%3DArchitects%2BDaughter;fontSize=20;" parent="1" vertex="1">
                    <mxGeometry x="45.12180575564253" y="1426.8680636551953" width="70.36613840710288" height="22.844869795617797" as="geometry"/>
                </mxCell>
            </root>
        </mxGraphModel>
    </diagram>
</mxfile>